<svg width="147" height="70" viewBox="0 0 147 70" fill="none" xmlns="http://www.w3.org/2000/svg">
<g filter="url(#filter0_d_2_1118)">
<path d="M14.448 41.88V1.24H17.52V39.832C17.52 45.5493 16.3253 50.1147 13.936 53.528C12.7413 55.2773 11.5253 56.728 10.288 57.88C9.05067 59.0747 7.536 60.312 5.744 61.592L4.4 59.608C11.0987 54.7013 14.448 48.792 14.448 41.88ZM65.4335 42.584C62.4895 46.04 58.0095 47.768 51.9935 47.768C45.9775 47.768 41.4762 46.0187 38.4895 42.52C35.5455 39.0213 34.0735 34.2427 34.0735 28.184V1.24H37.1455V28.184C37.1455 39.448 42.0735 45.08 51.9295 45.08C61.8282 45.08 66.7775 39.448 66.7775 28.184V1.24H69.8495V28.184C69.8495 34.2853 68.3775 39.0853 65.4335 42.584ZM86.4105 47V1.24H107.659V3.928H89.4825V20.76H105.931V23.384H89.4825V44.312H108.363V47H86.4105ZM140.636 5.272C137.522 3.94933 134.428 3.288 131.356 3.288C125.127 3.288 122.012 5.592 122.012 10.2C122.012 12.2053 122.716 14.0827 124.124 15.832C125.532 17.5387 127.239 19.0747 129.244 20.44C131.25 21.7627 133.255 23.128 135.26 24.536C137.266 25.944 138.972 27.6293 140.38 29.592C141.788 31.5547 142.493 33.688 142.493 35.992C142.493 39.8747 141.191 42.8187 138.588 44.824C135.986 46.7867 132.38 47.768 127.772 47.768C123.207 47.768 119.303 46.5947 116.06 44.248L117.596 41.944C120.668 43.9493 124.039 44.952 127.708 44.952C131.378 44.952 134.194 44.2267 136.156 42.776C138.119 41.2827 139.101 39.1493 139.101 36.376C139.101 34.456 138.396 32.6427 136.988 30.936C135.58 29.1867 133.874 27.6293 131.868 26.264C129.863 24.856 127.858 23.4267 125.852 21.976C123.847 20.5253 122.14 18.7973 120.732 16.792C119.324 14.7867 118.62 12.632 118.62 10.328C118.62 7.29866 119.73 4.90933 121.948 3.16C124.21 1.368 127.239 0.471996 131.036 0.471996C134.876 0.471996 138.439 1.24 141.725 2.776L140.636 5.272Z" fill="#FAFAFA"/>
</g>
<defs>
<filter id="filter0_d_2_1118" x="0.400024" y="0.471985" width="146.092" height="69.12" filterUnits="userSpaceOnUse" color-interpolation-filters="sRGB">
<feFlood flood-opacity="0" result="BackgroundImageFix"/>
<feColorMatrix in="SourceAlpha" type="matrix" values="0 0 0 0 0 0 0 0 0 0 0 0 0 0 0 0 0 0 127 0" result="hardAlpha"/>
<feOffset dy="4"/>
<feGaussianBlur stdDeviation="2"/>
<feComposite in2="hardAlpha" operator="out"/>
<feColorMatrix type="matrix" values="0 0 0 0 0 0 0 0 0 0 0 0 0 0 0 0 0 0 0.25 0"/>
<feBlend mode="normal" in2="BackgroundImageFix" result="effect1_dropShadow_2_1118"/>
<feBlend mode="normal" in="SourceGraphic" in2="effect1_dropShadow_2_1118" result="shape"/>
</filter>
</defs>
</svg>
